<svg width="122" height="100" viewBox="0 0 122 100" fill="none" xmlns="http://www.w3.org/2000/svg">
<path d="M92.7219 31.8418C89.4667 24.592 85.1503 18.2507 79.8934 12.9938C74.6365 7.73689 68.2952 3.42045 61.0454 0.165335L60.6774 0L60.3112 0.167112C52.8961 3.55378 46.4605 7.95911 41.1859 13.2604C35.9752 18.496 31.753 24.7502 28.6365 31.8471L28.4712 32.224L28.6507 32.5938C35.5112 46.7289 46.1583 57.3742 60.2916 64.2347L60.697 64.432L61.0952 64.2205C68.2383 60.4356 74.4143 56.0605 79.4703 51.2089H79.4774L79.481 51.1982C79.6872 50.9991 79.8952 50.8018 80.0979 50.6027C85.5059 45.2711 89.753 39.2036 92.7201 32.5689L92.8819 32.2044L92.7183 31.8418H92.7219ZM78.1939 49.7529C73.3174 51.2942 68.4054 52.1849 63.4827 52.4285C66.5956 50.3982 70.2134 47.4204 73.5912 44.0729C77.385 40.3147 80.4001 36.5796 82.1067 33.5573C81.9485 38.9689 80.6348 44.4107 78.1939 49.7529ZM39.257 33.4916C42.8907 39.7564 51.2516 48.2613 57.7547 52.4196C52.8836 52.1636 48.009 51.2764 43.1556 49.7529C40.729 44.3573 39.4205 38.8942 39.257 33.4916ZM43.1823 14.8213C47.9627 12.6471 52.7876 11.3547 57.5681 10.96C54.5245 12.8373 51.0739 15.6462 47.7334 18.9973C44.0623 22.6809 41.0934 26.4391 39.3423 29.5893C39.6943 24.6827 40.9779 19.728 43.1841 14.8213H43.1823ZM60.665 52.0605C57.3992 50.3751 53.3299 47.12 49.6072 43.4453H71.7014C68.0676 46.9742 64.0427 50.1884 60.6632 52.0605H60.665ZM48.9085 42.7449C45.2214 39.0098 41.9556 34.9262 40.2756 31.6533C41.8525 28.2951 45.1396 24.1084 48.9085 20.3218V42.7449ZM50.6863 32.3058L60.0481 41.6676H50.6863V32.3058ZM52.5654 31.6711L60.681 23.5556L68.7965 31.6711L60.681 39.7867L52.5654 31.6711ZM70.6774 32.3058V41.6676H61.3156L70.6774 32.3058ZM70.6774 31.0382L61.3156 21.6764H70.6774V31.0382ZM50.6863 31.0382V21.6764H60.0481L50.6863 31.0382ZM72.4552 20.3289C76.1939 24.1013 79.4756 28.2844 81.0916 31.6711C79.5947 34.7751 76.2899 38.8782 72.4552 42.7058V20.3289ZM49.3334 19.8987C53.0881 16.1902 57.2659 12.9173 60.6845 11.2622C64.0712 12.8782 68.2543 16.16 72.025 19.8987H49.3334ZM63.801 10.9582C68.5832 11.3511 73.401 12.6436 78.1636 14.8196C80.3645 19.7564 81.6534 24.7147 82.0161 29.6018C78.4605 23.2782 70.3201 14.9956 63.801 10.9582ZM60.6845 1.952C66.5956 4.64711 71.8721 8.07111 76.4161 12.1511C65.9876 8.048 55.433 8.04622 44.9601 12.144C49.481 8.12267 54.7521 4.70222 60.6845 1.952ZM40.5459 16.5244C36.6419 26.5653 36.4676 36.688 40.0196 46.7058C36.2863 42.4125 33.0703 37.5467 30.4321 32.1867C33.049 26.3289 36.4445 21.0738 40.5459 16.5244ZM60.665 62.4373C55.0419 59.6658 49.9645 56.256 45.5201 52.2827C50.5725 53.6124 55.6427 54.2791 60.7059 54.2791C65.769 54.2791 70.633 53.6373 75.5645 52.3573C71.273 56.048 66.2827 59.4276 60.665 62.4356V62.4373ZM81.3405 46.7342C84.9014 36.8124 84.7236 26.6862 80.8019 16.544C84.8534 21.0738 88.2543 26.3253 90.937 32.2062C88.5476 37.4471 85.3263 42.3182 81.3405 46.7342Z" fill="#026777"/>
<path d="M8.51555 85.6818V85.1627C9.27466 85.1627 9.75289 85.0649 9.95022 84.8675L8.56355 81.104H3.81156L2.52444 84.72C2.68978 85.0151 3.2 85.1627 4.05867 85.1627V85.6818H0V85.1627C0.924444 85.1627 1.44356 84.9902 1.55911 84.6435L6.36089 71.2035H7.54844L12.3502 84.6435C12.4658 84.9902 12.9938 85.1627 13.9342 85.1627V85.6818H8.51378H8.51555ZM6.16355 74.4942L4.11022 80.2613H8.26844L6.16533 74.4942H6.16355Z" fill="#0D5E7B"/>
<path d="M14.7021 85.6818V85.1627C15.6213 85.1627 16.1581 84.9973 16.311 84.6684V72.2187C16.1581 71.888 15.6213 71.7244 14.7021 71.7244V71.2053H20.3075C22.3573 71.2053 23.9128 71.5769 24.9706 72.3182C26.0284 73.0595 26.5581 73.9111 26.5581 74.8675C26.5581 75.776 26.2862 76.5706 25.7404 77.2551C25.1946 77.9395 24.3857 78.4391 23.3119 78.752L26.6044 84.6418C26.7697 84.9884 27.3137 85.1609 28.2381 85.1609V85.68H27.1733C26.0177 85.68 25.2675 85.6142 24.9208 85.4826C24.5741 85.3511 24.2275 84.9866 23.8808 84.3929L20.8746 79.0969H18.5386V84.6649C18.6915 84.9955 19.2284 85.1591 20.1475 85.1591V85.6782H14.7021V85.6818ZM18.5386 72.0444V78.256H20.6026C21.9288 78.256 22.839 78 23.3368 77.488C23.8346 76.976 24.0835 76.1102 24.0835 74.8889C24.0835 73.9822 23.8061 73.28 23.2497 72.7858C22.6933 72.2915 21.7119 72.0427 20.3039 72.0427H18.5386V72.0444Z" fill="#0D5E7B"/>
<path d="M28.5369 71.2018H40.9369V73.6018H40.4178C40.4178 72.7111 40.2524 72.1902 39.92 72.0427H35.8382V84.6649C35.9911 84.9955 36.528 85.1591 37.4471 85.1591V85.6782H32.0018V85.1591C32.9209 85.1591 33.4578 84.9938 33.6106 84.6649V72.0427H29.552C29.2213 72.1902 29.0578 72.7111 29.0578 73.6018H28.5386V71.2018H28.5369Z" fill="#0D5E7B"/>
<path d="M42.3965 85.6818V85.1627C43.3156 85.1627 43.8525 84.9973 44.0054 84.6684V72.2187C43.8525 71.888 43.3156 71.7244 42.3965 71.7244V71.2053H47.8418V71.7244C46.9227 71.7244 46.3858 71.8898 46.2329 72.2187V84.6684C46.3858 84.9991 46.9227 85.1627 47.8418 85.1627V85.6818H42.3965Z" fill="#0D5E7B"/>
<path d="M57.4453 71.7973C56.0266 71.7973 54.8461 72.384 53.9057 73.5538C52.9653 74.7253 52.4941 76.2435 52.4941 78.1084C52.4941 80.2862 52.9901 81.9946 53.9786 83.232C54.967 84.4693 56.1564 85.088 57.543 85.088C58.3679 85.088 59.1839 84.8035 59.9928 84.2346C60.8017 83.6658 61.3208 83.0595 61.5519 82.416L62.1457 82.7129C61.7653 83.6213 61.1679 84.384 60.3519 85.0026C59.5359 85.6213 58.4337 85.9307 57.047 85.9307C54.8533 85.9307 53.1164 85.2178 51.8381 83.7902C50.5599 82.3626 49.9199 80.6506 49.9199 78.6542C49.9199 76.3449 50.6577 74.4835 52.135 73.0738C53.6124 71.6622 55.3724 70.9582 57.4186 70.9582C57.8968 70.9582 58.4497 71.0826 59.0773 71.3298C59.7048 71.5769 60.0675 71.7013 60.167 71.7013C60.3644 71.7013 60.4639 71.536 60.4639 71.2071H61.0328L61.2799 74.3502H60.7359C60.6204 73.6071 60.295 72.9973 59.7581 72.5191C59.2213 72.0409 58.4497 71.8009 57.4435 71.8009L57.4453 71.7973Z" fill="#0D5E7B"/>
<path d="M63.7812 85.6818V85.1627C64.7004 85.1627 65.2372 84.9973 65.3901 84.6684V72.2187C65.2372 71.888 64.7004 71.7244 63.7812 71.7244V71.2053H69.2266V71.7244C68.3075 71.7244 67.7706 71.8898 67.6177 72.2187V77.7386H73.9786V72.2187C73.8257 71.888 73.2888 71.7244 72.3697 71.7244V71.2053H77.815V71.7244C76.8959 71.7244 76.359 71.8898 76.2061 72.2187V84.6684C76.359 84.9991 76.8959 85.1627 77.815 85.1627V85.6818H72.3697V85.1627C73.2888 85.1627 73.8257 84.9973 73.9786 84.6684V78.5795H67.6177V84.6684C67.7706 84.9991 68.3075 85.1627 69.2266 85.1627V85.6818H63.7812Z" fill="#0D5E7B"/>
<path d="M79.9663 78.4551C79.9663 76.3929 80.6099 74.6275 81.897 73.1591C83.1841 71.6906 84.825 70.9564 86.8214 70.9564C88.8179 70.9564 90.4588 71.6906 91.7459 73.1591C93.033 74.6275 93.6765 76.3929 93.6765 78.4551C93.6765 80.5173 93.0294 82.2791 91.7334 83.7386C90.4374 85.1982 88.8001 85.9289 86.8214 85.9289C84.8428 85.9289 83.1627 85.2035 81.8845 83.7511C80.6063 82.2986 79.9663 80.5333 79.9663 78.4551ZM82.441 78.256C82.441 79.3458 82.5939 80.3893 82.8996 81.3867C83.2054 82.3858 83.7085 83.2515 84.409 83.9858C85.1094 84.72 85.9468 85.088 86.921 85.088C87.8952 85.088 88.7147 84.7413 89.3832 84.048C90.0516 83.3546 90.521 82.5422 90.7947 81.6106C91.0667 80.6791 91.2036 79.6924 91.2036 78.6524C91.2036 77.6124 91.0472 76.5369 90.7325 75.5218C90.4196 74.5066 89.9112 73.632 89.2108 72.8978C88.5085 72.1635 87.6801 71.7955 86.7236 71.7955C85.9805 71.7955 85.3245 71.9929 84.7556 72.3893C84.1868 72.7858 83.7405 73.3084 83.4188 73.9609C83.097 74.6133 82.8534 75.3013 82.6881 76.0266C82.5228 76.752 82.441 77.4951 82.441 78.2542V78.256Z" fill="#0D5E7B"/>
<path d="M95.7812 85.6818V85.1627C96.6719 85.1627 97.1928 84.9973 97.3404 84.6684V72.2187C97.1928 71.888 96.6719 71.7244 95.7812 71.7244V71.2053H101.127V71.7244C100.236 71.7244 99.7155 71.8898 99.5679 72.2187V84.6684C99.7155 84.9991 100.236 85.1627 101.127 85.1627V85.6818H95.7812ZM104.419 85.6818V85.1627C104.798 85.1627 105.104 85.1378 105.335 85.088L99.6924 77.9111L105.756 71.8969C105.525 71.7813 105.104 71.7244 104.494 71.7244V71.2053H108.38V71.7244C107.687 71.7244 107.175 71.9146 106.846 72.2933L101.872 77.2178L107.689 84.7662C107.952 85.0311 108.473 85.1627 109.248 85.1627V85.6818H104.421H104.419Z" fill="#0D5E7B"/>
<path d="M110.062 85.6818V85.1627C110.981 85.1627 111.518 84.9973 111.671 84.6684V72.2187C111.518 71.888 110.981 71.7244 110.062 71.7244V71.2053H120.085V73.6053H119.566C119.566 72.7147 119.397 72.1938 119.061 72.0462H113.899V77.7387H117.385C117.717 77.5893 117.883 77.0702 117.883 76.1795H118.402V80.1404H117.883C117.883 79.2498 117.716 78.7289 117.385 78.5813H113.899V84.8427H119.591C120.004 84.6613 120.375 84.1422 120.704 83.2835H121.198L120.605 85.6835H110.061L110.062 85.6818Z" fill="#0D5E7B"/>
<path d="M26.585 92.3751C26.585 92.2187 26.6401 92.0836 26.7521 91.968C26.8641 91.8524 27.001 91.7956 27.1627 91.7956C27.3245 91.7956 27.4632 91.8524 27.5734 91.968C27.6854 92.0836 27.7405 92.2187 27.7405 92.3751C27.7405 92.544 27.6854 92.6827 27.5787 92.7911C27.4703 92.8996 27.3316 92.9529 27.1627 92.9529C26.9938 92.9529 26.8552 92.8996 26.7467 92.7911C26.6383 92.6827 26.585 92.544 26.585 92.3751ZM26.7681 94.2329H27.5592V98.9849H26.7681V94.2329Z" fill="#222222"/>
<path d="M33.1946 95.36C33.1946 95.1431 33.1875 94.9405 33.1751 94.7502C33.1608 94.56 33.1555 94.3876 33.1555 94.2329H33.9075C33.9075 94.3609 33.9111 94.4907 33.9182 94.6187C33.9253 94.7467 33.9289 94.88 33.9289 95.0151H33.9484C34.0017 94.8996 34.0782 94.7876 34.1777 94.6809C34.2755 94.5725 34.3929 94.4765 34.528 94.3911C34.6631 94.3058 34.816 94.2382 34.9849 94.1885C35.1537 94.1369 35.3368 94.112 35.5324 94.112C35.8435 94.112 36.112 94.16 36.3395 94.2542C36.5671 94.3485 36.7537 94.4818 36.9031 94.6507C37.0524 94.8196 37.1626 95.024 37.2337 95.2658C37.3049 95.5076 37.3404 95.7689 37.3404 96.0534V98.9867H36.5493V96.1333C36.5493 95.7333 36.4604 95.4187 36.2862 95.1893C36.1102 94.96 35.8364 94.8445 35.4631 94.8445C35.2053 94.8445 34.9848 94.8889 34.7982 94.976C34.6115 95.0649 34.4604 95.1893 34.3413 95.3511C34.2222 95.5129 34.1351 95.7067 34.0764 95.9289C34.0195 96.1529 33.9893 96.4 33.9893 96.6702V98.9849H33.1982V95.36H33.1946Z" fill="#222222"/>
<path d="M45.5006 94.9031H44.0997V97.2782C44.0997 97.4347 44.1032 97.5769 44.1103 97.7102C44.1174 97.8418 44.1441 97.9573 44.1921 98.0551C44.2401 98.1529 44.3112 98.2311 44.4054 98.288C44.4997 98.3449 44.6348 98.3751 44.8108 98.3751C44.9263 98.3751 45.0437 98.3609 45.1663 98.3342C45.289 98.3076 45.4028 98.2667 45.5112 98.2116L45.5414 98.9333C45.4063 98.9938 45.2552 99.0382 45.0899 99.0649C44.9246 99.0916 44.7663 99.1058 44.617 99.1058C44.3326 99.1058 44.105 99.0685 43.9361 98.9938C43.7672 98.9191 43.6357 98.8142 43.5397 98.6791C43.4454 98.544 43.3814 98.3769 43.3512 98.176C43.321 97.9751 43.305 97.7547 43.305 97.5111V94.9013H42.2686V94.2311H43.305V92.88H44.0961V94.2311H45.497V94.9013L45.5006 94.9031Z" fill="#222222"/>
<path d="M54.7804 98.1209C54.4959 98.4871 54.1848 98.7414 53.847 98.8871C53.5093 99.0329 53.1164 99.1058 52.6702 99.1058C52.2986 99.1058 51.9626 99.04 51.6657 98.9085C51.367 98.7769 51.1164 98.5991 50.9102 98.3751C50.7039 98.1511 50.5439 97.888 50.4337 97.584C50.3217 97.28 50.2666 96.9547 50.2666 96.6098C50.2666 96.2436 50.327 95.9076 50.4497 95.6C50.5724 95.2925 50.7413 95.0276 50.9582 94.8071C51.175 94.5867 51.431 94.416 51.7297 94.2951C52.0266 94.1725 52.3519 94.112 52.7039 94.112C53.0364 94.112 53.3404 94.1671 53.6177 94.2791C53.895 94.3911 54.1333 94.5529 54.3342 94.7662C54.5333 94.9796 54.6879 95.2409 54.7964 95.5485C54.9048 95.856 54.9582 96.2062 54.9582 96.5991V96.8534H51.1199C51.1342 97.056 51.1822 97.2516 51.2675 97.4365C51.3528 97.6231 51.4613 97.7849 51.5982 97.9236C51.7333 98.0622 51.8933 98.1725 52.0746 98.2542C52.2577 98.336 52.4568 98.3769 52.6737 98.3769C53.0186 98.3769 53.3102 98.3165 53.5466 98.1938C53.783 98.0729 53.9964 97.8933 54.1866 97.6551L54.7857 98.1227L54.7804 98.1209ZM54.0995 96.1813C54.0853 95.776 53.9537 95.4507 53.703 95.2071C53.4524 94.9636 53.1075 94.8409 52.6666 94.8409C52.2257 94.8409 51.8719 94.9618 51.5999 95.2071C51.3297 95.4507 51.1662 95.776 51.1128 96.1813H54.0977H54.0995Z" fill="#222222"/>
<path d="M60.2417 95.36C60.2417 95.1431 60.2346 94.9405 60.2222 94.7502C60.208 94.56 60.2026 94.3876 60.2026 94.2329H60.9546C60.9546 94.3609 60.9582 94.4907 60.9653 94.6187C60.9724 94.7467 60.976 94.88 60.976 95.0151H60.9955C61.0489 94.8996 61.1253 94.7876 61.2249 94.6809C61.3226 94.5725 61.44 94.4765 61.5751 94.3911C61.7102 94.3058 61.8631 94.2382 62.032 94.1885C62.2009 94.1369 62.384 94.112 62.5795 94.112C62.6329 94.112 62.688 94.1156 62.7413 94.1227C62.7946 94.1298 62.8498 94.1422 62.9031 94.1636L62.8515 94.9653C62.7164 94.9245 62.5742 94.9049 62.4249 94.9049C61.9378 94.9049 61.584 95.0613 61.3635 95.3778C61.1431 95.6925 61.0329 96.1245 61.0329 96.672V98.9867H60.24V95.3618L60.2417 95.36Z" fill="#222222"/>
<path d="M67.7654 92.3751C67.7654 92.2187 67.8205 92.0836 67.9325 91.968C68.0445 91.8525 68.1814 91.7956 68.3432 91.7956C68.5049 91.7956 68.6418 91.8525 68.7538 91.968C68.8658 92.0836 68.9209 92.2187 68.9209 92.3751C68.9209 92.544 68.8676 92.6827 68.7592 92.7911C68.6507 92.8996 68.512 92.9529 68.3432 92.9529C68.1743 92.9529 68.0356 92.8996 67.9272 92.7911C67.8187 92.6827 67.7654 92.544 67.7654 92.3751ZM67.9485 94.2329H68.7414V98.9849H67.9485V94.2329Z" fill="#222222"/>
<path d="M74.1013 96.608C74.1013 96.2365 74.1653 95.8969 74.2933 95.5929C74.4213 95.2889 74.5973 95.0258 74.8213 94.8053C75.0453 94.5849 75.312 94.4142 75.6231 94.2933C75.9342 94.1707 76.2738 94.1102 76.6382 94.1102C77.0027 94.1102 77.3422 94.1707 77.6533 94.2933C77.9644 94.4142 78.2311 94.5867 78.4551 94.8053C78.6791 95.024 78.8551 95.2871 78.9831 95.5929C79.1111 95.8969 79.1751 96.2365 79.1751 96.608C79.1751 96.9796 79.1111 97.3191 78.9831 97.6231C78.8551 97.9271 78.6791 98.1902 78.4551 98.4107C78.2311 98.6311 77.9644 98.8018 77.6533 98.9227C77.3422 99.0453 77.0027 99.1058 76.6382 99.1058C76.2738 99.1058 75.9342 99.0453 75.6231 98.9227C75.312 98.8 75.0435 98.6293 74.8213 98.4107C74.5973 98.1902 74.4213 97.9289 74.2933 97.6231C74.1653 97.3191 74.1013 96.9796 74.1013 96.608ZM74.9529 96.608C74.9529 96.8587 74.992 97.0898 75.0702 97.3031C75.1484 97.5165 75.2622 97.7031 75.4098 97.8613C75.5591 98.0196 75.7369 98.1458 75.9431 98.2365C76.1493 98.3271 76.3804 98.3733 76.6382 98.3733C76.896 98.3733 77.1271 98.3271 77.3333 98.2365C77.5395 98.1458 77.7173 98.0196 77.8667 97.8613C78.016 97.7031 78.1298 97.5165 78.2062 97.3031C78.2826 97.0898 78.3235 96.8587 78.3235 96.608C78.3235 96.3574 78.2844 96.1262 78.2062 95.9129C78.128 95.6996 78.0142 95.5129 77.8667 95.3547C77.7173 95.1965 77.5395 95.0702 77.3333 94.9796C77.1271 94.8889 76.8942 94.8427 76.6382 94.8427C76.3822 94.8427 76.1493 94.8889 75.9431 94.9796C75.7369 95.0702 75.5591 95.1965 75.4098 95.3547C75.2604 95.5129 75.1467 95.6996 75.0702 95.9129C74.992 96.1262 74.9529 96.3574 74.9529 96.608Z" fill="#222222"/>
<path d="M84.4676 95.36C84.4676 95.1431 84.4605 94.9405 84.448 94.7502C84.4338 94.56 84.4285 94.3876 84.4285 94.2329H85.1805C85.1805 94.3609 85.184 94.4907 85.1911 94.6187C85.1983 94.7467 85.2018 94.88 85.2018 95.0151H85.2214C85.2747 94.8996 85.3511 94.7876 85.4507 94.6809C85.5485 94.5725 85.6658 94.4765 85.8009 94.3911C85.936 94.3058 86.0889 94.2382 86.2578 94.1885C86.4267 94.1369 86.6098 94.112 86.8054 94.112C86.8587 94.112 86.9138 94.1156 86.9671 94.1227C87.0205 94.1298 87.0756 94.1422 87.1289 94.1636L87.0774 94.9653C86.9422 94.9245 86.8 94.9049 86.6507 94.9049C86.1636 94.9049 85.8098 95.0613 85.5894 95.3778C85.3689 95.6925 85.2587 96.1245 85.2587 96.672V98.9867H84.4676V95.3618V95.36Z" fill="#222222"/>
<path d="M92.2028 97.7351C92.3592 97.9307 92.5299 98.0871 92.7148 98.2027C92.9015 98.3182 93.1361 98.3751 93.4206 98.3751C93.5432 98.3751 93.6659 98.3609 93.7903 98.3342C93.9148 98.3076 94.0286 98.2631 94.1299 98.2027C94.2312 98.1422 94.313 98.0658 94.3734 97.9734C94.4339 97.8827 94.4641 97.7725 94.4641 97.6427C94.4641 97.5129 94.4357 97.4098 94.377 97.328C94.3201 97.2462 94.2437 97.1769 94.1477 97.12C94.0535 97.0631 93.945 97.0169 93.8223 96.9831C93.7014 96.9493 93.5752 96.9191 93.4472 96.8925C93.2232 96.8445 93.0099 96.7911 92.8072 96.7307C92.6046 96.6702 92.4268 96.5902 92.2739 96.4925C92.121 96.3947 92.0001 96.2667 91.9077 96.112C91.817 95.9556 91.7708 95.7565 91.7708 95.5129C91.7708 95.2836 91.8223 95.0791 91.9237 94.9031C92.025 94.7271 92.1601 94.5813 92.3308 94.4658C92.4997 94.3502 92.6899 94.2631 92.8997 94.2009C93.1094 94.1405 93.3263 94.1102 93.5486 94.1102C93.8863 94.1102 94.1992 94.1778 94.4872 94.3129C94.7752 94.448 94.9992 94.6685 95.1628 94.9725L94.5032 95.4098C94.4019 95.2409 94.2686 95.104 94.1014 94.9991C93.9361 94.8942 93.7334 94.8427 93.497 94.8427C93.3886 94.8427 93.2783 94.8569 93.1663 94.8836C93.0543 94.9102 92.9548 94.9511 92.8677 95.0045C92.7788 95.0596 92.7077 95.1289 92.649 95.2125C92.5921 95.2978 92.5619 95.3938 92.5619 95.5022C92.5619 95.6036 92.5939 95.6907 92.6579 95.7618C92.7219 95.8329 92.8108 95.8951 92.9228 95.9502C93.0348 96.0053 93.1628 96.0516 93.3086 96.0925C93.4543 96.1333 93.6055 96.1671 93.7601 96.1938C93.9699 96.2347 94.169 96.2862 94.3592 96.3502C94.5495 96.4142 94.7148 96.5013 94.857 96.6098C94.9992 96.7182 95.1112 96.8533 95.1912 97.0169C95.273 97.1787 95.3139 97.3796 95.3139 97.616C95.3139 97.8862 95.2606 98.1173 95.1521 98.3058C95.0437 98.496 94.8997 98.6489 94.7201 98.768C94.5406 98.8871 94.3379 98.9725 94.1103 99.0276C93.8828 99.0809 93.6517 99.1094 93.4152 99.1094C93.0099 99.1094 92.6597 99.0471 92.3646 98.9209C92.0694 98.7947 91.8046 98.5636 91.5681 98.2258L92.1974 97.7387L92.2028 97.7351Z" fill="#222222"/>
</svg>
